# xmcd
#
# Track frame offsets: 
#        150
#        5526
#        16677
#        21600
#        35146
#        49744
#        62755
#        67920
#        81673
#        95503
#        105344
#        119813
#        133034
#        138423
#        150583
#        164135
#        179368
#        192331
#        198757
#        208650
#        219713
#        233293
#        237093
#        251302
#        258149
#
# Disc length: 3640 seconds
#
# Revision: 0
# Processed by: cddbd v1.5.2PL0 Copyright (c) Steve Scherf et al.
# Submitted via: ExactAudioCopy v1.0b3
#
DISCID=5f0e3619
DTITLE=Various Artist - Steve Roden - ...i listen to the wind that obl
DTITLE=iterates my traces [CDone)
DYEAR=2011
DGENRE=Blues
TTITLE0=hmv weather effects - Wind
TTITLE1=john jacob niles - john henry
TTITLE2=anonymous - untitled
TTITLE3=reverend edward clayborn - then we'll need that true religion
TTITLE4=ernest thompson - in the baggage coach ahead
TTITLE5=emery glen - blue blazes blues
TTITLE6=gennett sound effects - walking on ice
TTITLE7=clara smith - kind lovin' blues
TTITLE8=nick lucas - if you hadn't gone away
TTITLE9=anonymous - beautiful mansions of gold
TTITLE10=eva parker - i seen my pretty papa standing on a hill
TTITLE11=pale k. lua - the rosary
TTITLE12=gennett sound effects - mocking bird
TTITLE13=bradley kincaid - froggie went a-courting
TTITLE14=sylvester weaver - damfino stump
TTITLE15=seger ellis - montana call
TTITLE16=alfred g. karnes - when they ring the golden bells
TTITLE17=anonymous - mandolin
TTITLE18=anonymous - the stranger
TTITLE19=ex-governor alf. taylor's old limber quartet - brother noah b
TTITLE19=uilt an ark
TTITLE20=ed lang - a little love a little kiss
TTITLE21=standard radio sound effects - canadian geese
TTITLE22=roy smeck's trio - reaching for the moon
TTITLE23=roland haynes - i want to go home
TTITLE24=obed pickard of station wsm nashville tennessee - the old gre
TTITLE24=y horse
EXTD=
EXTT0=
EXTT1=
EXTT2=
EXTT3=
EXTT4=
EXTT5=
EXTT6=
EXTT7=
EXTT8=
EXTT9=
EXTT10=
EXTT11=
EXTT12=
EXTT13=
EXTT14=
EXTT15=
EXTT16=
EXTT17=
EXTT18=
EXTT19=
EXTT20=
EXTT21=
EXTT22=
EXTT23=
EXTT24=
PLAYORDER=
